<?xml version="1.0" encoding="UTF-8"?>
<svg xmlns="http://www.w3.org/2000/svg" xmlns:xlink="http://www.w3.org/1999/xlink" width="19pt" height="19pt" viewBox="0 0 19 19" version="1.1">
<g id="surface1">
<path style=" stroke:none;fill-rule:nonzero;fill:rgb(0%,0%,0%);fill-opacity:1;" d="M 3.265625 16.921875 C 2.9375 16.921875 2.671875 16.65625 2.671875 16.328125 L 2.671875 2.449219 C 2.671875 1.097656 3.769531 0 5.121094 0 L 15.734375 0 C 16.0625 0 16.328125 0.265625 16.328125 0.59375 L 16.328125 14.25 C 16.328125 14.578125 16.0625 14.84375 15.734375 14.84375 C 15.40625 14.84375 15.140625 14.578125 15.140625 14.25 L 15.140625 1.1875 L 5.121094 1.1875 C 4.425781 1.1875 3.859375 1.753906 3.859375 2.449219 L 3.859375 16.328125 C 3.859375 16.65625 3.59375 16.921875 3.265625 16.921875 Z M 3.265625 16.921875 "/>
<path style=" stroke:none;fill-rule:nonzero;fill:rgb(0%,0%,0%);fill-opacity:1;" d="M 15.734375 19 L 5.34375 19 C 3.871094 19 2.671875 17.800781 2.671875 16.328125 C 2.671875 14.855469 3.871094 13.65625 5.34375 13.65625 L 15.734375 13.65625 C 16.0625 13.65625 16.328125 13.921875 16.328125 14.25 C 16.328125 14.578125 16.0625 14.84375 15.734375 14.84375 L 5.34375 14.84375 C 4.523438 14.84375 3.859375 15.507812 3.859375 16.328125 C 3.859375 17.148438 4.523438 17.8125 5.34375 17.8125 L 15.734375 17.8125 C 16.0625 17.8125 16.328125 18.078125 16.328125 18.40625 C 16.328125 18.734375 16.0625 19 15.734375 19 Z M 15.734375 19 "/>
<path style=" stroke:none;fill-rule:nonzero;fill:rgb(0%,0%,0%);fill-opacity:1;" d="M 15.734375 16.921875 L 5.34375 16.921875 C 5.015625 16.921875 4.75 16.65625 4.75 16.328125 C 4.75 16 5.015625 15.734375 5.34375 15.734375 L 15.734375 15.734375 C 16.0625 15.734375 16.328125 16 16.328125 16.328125 C 16.328125 16.65625 16.0625 16.921875 15.734375 16.921875 Z M 15.734375 16.921875 "/>
<path style=" stroke:none;fill-rule:nonzero;fill:rgb(0%,0%,0%);fill-opacity:1;" d="M 5.9375 14.84375 C 5.609375 14.84375 5.34375 14.578125 5.34375 14.25 L 5.34375 0.59375 C 5.34375 0.265625 5.609375 0 5.9375 0 C 6.265625 0 6.53125 0.265625 6.53125 0.59375 L 6.53125 14.25 C 6.53125 14.578125 6.265625 14.84375 5.9375 14.84375 Z M 5.9375 14.84375 "/>
</g>
</svg>
